/* XPM */
static char *East[] = {
/* columns rows colors chars-per-pixel */
"64 64 2 1 ",
"  c black",
". c #00B4FF",
/* pixels */
"................................................................",
"................................................................",
"................................................................",
"................................................................",
"................................................................",
"................................................................",
"................................................................",
"................................................................",
"................................................................",
"................................................................",
"...................                          ...................",
"...................                          ...................",
"...................                          ...................",
"...................                          ...................",
"...................                          ...................",
"...................        .....................................",
"...................        .....................................",
"...................        .....................................",
"...................        .....................................",
"...................        .....................................",
"...................        .....................................",
"...................        .....................................",
"...................        .....................................",
"...................        .....................................",
"...................        .....................................",
"...................        .....................................",
"...................        .....................................",
"...................        .....................................",
"...................                         ....................",
"...................                         ....................",
"...................                         ....................",
"...................                         ....................",
"...................                         ....................",
"...................        .....................................",
"...................        .....................................",
"...................        .....................................",
"...................        .....................................",
"...................        .....................................",
"...................        .....................................",
"...................        .....................................",
"...................        .....................................",
"...................        .....................................",
"...................        .....................................",
"...................        .....................................",
"...................        .....................................",
"...................        .....................................",
"...................        .....................................",
"...................        .....................................",
"...................        .....................................",
"...................                           ..................",
"...................                           ..................",
"...................                           ..................",
"...................                           ..................",
"...................                           ..................",
"................................................................",
"................................................................",
"................................................................",
"................................................................",
"................................................................",
"................................................................",
"................................................................",
"................................................................",
"................................................................",
"................................................................"
};
