/* XPM */
static char *West[] = {
/* columns rows colors chars-per-pixel */
"64 64 2 1 ",
"  c black",
". c #7800FF",
/* pixels */
"................................................................",
"................................................................",
"................................................................",
"................................................................",
"................................................................",
"................................................................",
"................................................................",
"................................................................",
"................................................................",
"................................................................",
"................................................................",
".....        ................        ...............        ....",
".....        ...............         ...............        ....",
"......        ..............         ..............        .....",
"......        ..............         ..............        .....",
"......        ..............          .............        .....",
"......        .............           .............        .....",
".......        ............           ............        ......",
".......        ............           ............        ......",
".......        ............            ...........        ......",
".......        ...........             ...........       .......",
"........       ...........             ..........        .......",
"........        ..........             ..........        .......",
"........        .........               .........        .......",
"........        .........       .       .........       ........",
".........       .........       .       ........        ........",
".........        ........       .       ........        ........",
".........        .......       ..        .......       .........",
".........        .......       ..        .......       .........",
"..........       .......       ...       ......        .........",
"..........        ......       ...       ......        .........",
"..........        .....       ....       ......       ..........",
"..........        .....       ....        .....       ..........",
"...........       .....       .....       ....        ..........",
"...........        ....       .....       ....       ...........",
"...........        ...       ......       ....       ...........",
"...........        ...       ......        ...       ...........",
"............       ...       .......       ..        ...........",
"............       ...      ........       ..       ............",
"............        .       ........       ..       ............",
"............        .       ........        .       ............",
".............       .       .........              .............",
".............       .      ..........              .............",
".............              ..........              .............",
".............              ..........              .............",
"..............             ..........             ..............",
"..............            ............            ..............",
"..............            ............            ..............",
"...............           ............           ...............",
"...............          .............           ...............",
"...............          ..............          ...............",
"...............          ..............          ...............",
"................         ..............         ................",
"................        ...............         ................",
"................        ................        ................",
"................................................................",
"................................................................",
"................................................................",
"................................................................",
"................................................................",
"................................................................",
"................................................................",
"................................................................",
"................................................................"
};
