/* XPM */
static char *North[] = {
/* columns rows colors chars-per-pixel */
"64 64 2 1 ",
"  c black",
". c #FCFF00",
/* pixels */
"................................................................",
"................................................................",
"................................................................",
"................................................................",
"................................................................",
"................................................................",
"................................................................",
"................................................................",
"................................................................",
"................................................................",
"................        ...................       ..............",
"................         ..................       ..............",
"................         ..................       ..............",
"................          .................       ..............",
"................           ................       ..............",
"................           ................       ..............",
"................            ...............       ..............",
"................             ..............       ..............",
"................             ..............       ..............",
"................              .............       ..............",
"................              .............       ..............",
"................               ............       ..............",
"................                ...........       ..............",
"................       .        ...........       ..............",
"................       .         ..........       ..............",
"................       ..         .........       ..............",
"................       ..         .........       ..............",
"................       ...         ........       ..............",
"................       ....         .......       ..............",
"................       ....         .......       ..............",
"................       .....         ......       ..............",
"................       .....          .....       ..............",
"................       ......         .....       ..............",
"................       .......         ....       ..............",
"................       .......         ....       ..............",
"................       ........         ...       ..............",
"................       .........         ..       ..............",
"................       .........         ..       ..............",
"................       ..........         .       ..............",
"................       ..........         .       ..............",
"................       ...........                ..............",
"................       ............               ..............",
"................       ............               ..............",
"................       .............              ..............",
"................       ..............             ..............",
"................       ..............             ..............",
"................       ...............            ..............",
"................       ................           ..............",
"................       ................           ..............",
"................       .................          ..............",
"................       .................          ..............",
"................       ..................         ..............",
"................       ...................        ..............",
"................       ...................        ..............",
"................................................................",
"................................................................",
"................................................................",
"................................................................",
"................................................................",
"................................................................",
"................................................................",
"................................................................",
"................................................................",
"................................................................"
};
